# xmcd CD database file
#
# Track frame offsets:
#	150
#	26412
#	36632
#	54980
#	71902
#	81222
#	98215
#	113604
#	136797
#	140670
#	155085
#	171067
#	187570
#	206335
#	232080
#	256097
#	284545
#	297180
#	312937
#
# Disc length: 4361 seconds
#
# Revision: 1
# Processed by: cddbd v1.5.2PL0 Copyright (c) Steve Scherf et al.
# Submitted via: CDex 1.70beta2
#
DISCID=0f110713
DTITLE=Rhythm Makers - Soul On Your Side
DYEAR=1993
DGENRE=Funk
TTITLE0=Zone (Crier-Banks-Lane-LeBlanc-Ramsey) (1975)
TTITLE1=Can You Feel It (Part 1) (Crier-Banks-Lane-LeBlanc-Ramsey) (1976)
TTITLE2=You Better Believe It (Crier-Banks-Lane-LeBlanc-Ramsey) (1976)
TTITLE3=Soul On Your Side (Terrell-Wolley) (1976)
TTITLE4=Funk-N-You (Crier-Banks-Lane-LeBlanc-Ramsey) (1976)
TTITLE5=Street Dreamin'  (Terrell-Wolley) (1976)
TTITLE6=You're My Last Girl (LeBlanc) (1976)
TTITLE7=Monterey (Crier-Banks-Lane-LeBlanc-Ramsey) (1976)
TTITLE8=Can You Feel It (Part 2)  (Crier-Banks-Lane-LeBlanc-Ramsey) (1976)
TTITLE9=Touch  (Crier-Banks-Lane-LeBlanc-Ramsey) (1975)
TTITLE10=Memories Of You (Crier-Lane) (1975)
TTITLE11=Prime You  (Crier-Banks-Lane-LeBlanc-Ramsey) (1975)
TTITLE12=At The Hop (Singer-Medora-White) (1976)
TTITLE13=Zone  (Crier-Banks-Lane-LeBlanc-Ramsey) (1976)
TTITLE14=Position (Crier-Banks-Lane-LeBlanc-Ramsey) (1976)
TTITLE15=Wonderful  (Crier-Banks-Lane-LeBlanc-Service) (1976)
TTITLE16=Lover's Lane (Crier-Banks-Lane-LeBlanc-Ramsey) (1976)
TTITLE17=You're Never To Old (Shade-Crier-LeBlanc) (1974)
TTITLE18=How Much I Love You
EXTD=YEAR: 1993
EXTT0=
EXTT1=
EXTT2=
EXTT3=
EXTT4=
EXTT5=
EXTT6=
EXTT7=
EXTT8=
EXTT9=
EXTT10=
EXTT11=
EXTT12=
EXTT13=
EXTT14=
EXTT15=
EXTT16=
EXTT17=
EXTT18=
PLAYORDER=
